<svg xmlns="http://www.w3.org/2000/svg" viewBox="0 0 220.55 308"><defs><style>.cls-1{fill:#f7e4ed;}</style></defs><g id="Layer_2" data-name="Layer 2"><g id="Layer_1-2" data-name="Layer 1"><g id="Layer_2-2" data-name="Layer 2"><g id="Layer_1-2-2" data-name="Layer 1-2"><path class="cls-1" d="M103.91,308a108.5,108.5,0,0,1-39.15-7.28,97.71,97.71,0,0,1-33-20.51c-10.37-9.5-18.3-19.76-23.57-30.51A77.33,77.33,0,0,1,0,215.54C0,201.92,3.18,191,9.46,183a42.41,42.41,0,0,1,17.82-12.92c-.24-.73-.47-1.46-.7-2.2a37.9,37.9,0,0,1-1.84-9.79c0-.18,0-.37,0-.55,0-8.68,4.16-17.2,12.37-25.31s16.49-12.18,24.72-12.19h.61C55.54,100.13,50.27,84,46.69,71.83c-5-17-7.34-28.13-7.33-35.14,0-10.61,3-19.38,8.81-26.06C54.26,3.68,62.79,0,72.86,0c13.59,0,23.52,14.74,29.81,25.83,7.72,13.62,15.91,32.88,25,58.77,20-55.41,36.65-79.26,55-79.26,9.55,0,17.71,3.53,23.61,10.2,5.67,6.41,8.54,14.81,8.51,25,0,6.86-2.23,17.86-7,34.56-3.84,13.43-9.43,30.57-16.65,51.08,9,3.51,15.93,9,20.58,16.36,6,9.46,8.86,23.24,8.86,42.12,0,35.72-11,65.48-32.73,88.46C166,296.2,137.75,308,104,308ZM70,266.15c.74.39,1.47.76,2.22,1.12a76.83,76.83,0,0,0,32.85,7.43h1.08q3.18,0,6.27-.21c-4.35-2.24-8.77-6.18-12.29-12.93A46.27,46.27,0,0,1,97,253.88a26.35,26.35,0,0,1-4.19,4.59,29.51,29.51,0,0,1-20,7.77H72.5C71.67,266.24,70.84,266.21,70,266.15Zm96.52-106.21a15.38,15.38,0,0,1,12.13,5.87c.12.15.23.3.34.46a22.8,22.8,0,0,1,4,11.1,10,10,0,0,1-3.11,8.16c-3.3,3.1-8.57,6-17.08,9.25-7.69,3-11.75,5.36-13.8,6.82a60.56,60.56,0,0,0-16.35,17.72c-3.83,6.35-5.77,12.23-5.77,17.45a41.66,41.66,0,0,0,2.56,12.56c2.93,8.79,3.58,12.1,3.64,14.36,0,.11,0,.21,0,.31v1.39a10.24,10.24,0,0,1-.23,2.14l-.39,1.78a11.81,11.81,0,0,1-.34,1.2c11.65-4.08,22-11.14,31.14-21.3,15.77-17.45,23.43-38.83,23.42-65.39,0-7.95-.57-14.2-1.69-18.58-.75-2.92-1.82-5.05-3-6l-.2-.16c-2.34-1.94-9-5.82-27.38-10A210,210,0,0,0,108.49,144h-.79a21.66,21.66,0,0,0-3.11.19c0,.11,0,.22,0,.34,0,3.43,1.06,7.07,8.73,10.15,6,2.41,18.59,5.28,44.61,5.28Zm-130,43.58H37a10,10,0,0,1,7.24,3.61c2,2.38,4.58,5.72,8,10.24l.12.16C59.2,227,63.89,230.07,66.44,231c-.29-.54-.63-1.14-1-1.82a119,119,0,0,0-10-14.31,3.5,3.5,0,0,1-.24-.3,108,108,0,0,0-11.92-13.37,20.17,20.17,0,0,0-2.44-1.89c-1.48.46-3,2.08-4.1,3.47-.19.24-.37.48-.54.73Zm26.33-34.78a124.83,124.83,0,0,0,12.24,18.62l.19.24a101.23,101.23,0,0,0,14.86,16.55,36.05,36.05,0,0,0,4.35,3.23A119,119,0,0,0,90,194.75a165.77,165.77,0,0,0-12.77-25.44.41.41,0,0,1-.05-.09c-3.41-5.67-6.67-9.9-9.71-12.57a11.08,11.08,0,0,0-3.8-2.45,12.82,12.82,0,0,0-2.45,2.11,10.28,10.28,0,0,0-2.2,3C59.13,159.94,59.62,162.57,62.83,168.74Zm94.53-50.57C164.75,97.87,170.68,80.69,175,67c6.41-20.29,7-25.05,7-25.85,0-.15,0-.29,0-.43a28.56,28.56,0,0,0-2.08,3c-3.4,5.45-7.34,14.72-11.71,27.54l-15.92,46.06ZM71.82,34.72c0,2.84.84,10.35,6.48,28.72C82.17,76,87.78,92.25,95,111.73a25.81,25.81,0,0,1,3.17-.19H99c.46,0,1,0,1.79,0L84.41,64.27C77.87,45.78,74.34,38.46,72.54,35.6c-.26-.41-.5-.77-.72-1.07Z"/></g></g></g></g></svg>