<svg xmlns="http://www.w3.org/2000/svg" viewBox="0 0 200.55 288"><defs><style>.cls-1{fill:#f7e4ed;}</style></defs><g id="Layer_2" data-name="Layer 2"><g id="Layer_1-2" data-name="Layer 1"><g id="Layer_2-2" data-name="Layer 2"><g id="Layer_1-2-2" data-name="Layer 1-2"><path class="cls-1" d="M168.12,122.82q17.79,3.38,25.11,15t7.32,36.79q0,49.84-30,81.59T94,288a99,99,0,0,1-35.7-6.63,88.27,88.27,0,0,1-29.77-18.49Q14.24,249.8,7.12,235.26A66.88,66.88,0,0,1,0,205.5q0-17,7.32-26.31t23.14-12.66a105.52,105.52,0,0,1-4.35-11.67,28,28,0,0,1-1.39-7.31q0-8.91,9.4-18.2t17.7-9.3a24.27,24.27,0,0,1,7.51,1.29,49.25,49.25,0,0,1,9.1,4.25Q53.21,82.48,46.28,59T39.36,26.7q0-12.25,6.33-19.48T62.89,0Q81.49,0,110,83.07q4.94,14.24,7.51,22,2.17-6.12,6.13-17.4,28.46-82.33,49-82.33,10.09,0,16.12,6.82t6,18.3q0,8.7-6.63,31.84T168.12,122.82ZM26.5,203.52q2.78,3.36,7.72,9.89,13.05,18,24.13,18A10.5,10.5,0,0,0,65.07,229q3-2.37,3-4.94,0-3-4-9.89a127.2,127.2,0,0,0-10.87-15.6,117.09,117.09,0,0,0-13.15-14.73c-3.49-3.1-6.3-4.65-8.4-4.65q-6.93,0-12.76,7.42a27.45,27.45,0,0,0-5.84,17.5q0,8.12,4.06,18.1a86.77,86.77,0,0,0,11.77,20.07,78.47,78.47,0,0,0,29,24,86.28,86.28,0,0,0,38.27,8.41q38.57,0,64.58-28.78t26-72.09q0-13.24-2-21.06t-6.53-11.38q-8.12-6.72-31.54-12.06a220.06,220.06,0,0,0-49-5.34q-7.11,0-10.08,2.37t-3,8.11q0,13.46,15,19.48t48.66,6h8.11A5.45,5.45,0,0,1,160.8,162a12.84,12.84,0,0,1,2.27,6.23q-3.36,3.16-13.84,7.22t-16,8a70.93,70.93,0,0,0-19.09,20.67q-7.23,12-7.22,22.65,0,6.53,3.07,15.72t3.14,11.5v1.39l-.39,1.78Q104,256.52,99,246.93t-5-25.61v-1.78a11.13,11.13,0,0,1-3.07,2,8.87,8.87,0,0,1-3.26.59,18,18,0,0,1-3.36-.3,31.39,31.39,0,0,1-3.56-.89,36.19,36.19,0,0,1,.89,4.26,25.47,25.47,0,0,1,.29,3.26A16.44,16.44,0,0,1,76.15,241a19.59,19.59,0,0,1-13.65,5.24q-12.47,0-25.32-12.16T24.33,210.24a13.52,13.52,0,0,1,.49-3.85A6.74,6.74,0,0,1,26.5,203.52Zm59.34,4.74A8.15,8.15,0,0,0,92,205.2a9.75,9.75,0,0,0,2.77-6.63q0-3.75-5.44-17.5a175.64,175.64,0,0,0-13.55-27q-5.93-9.88-11.67-14.93t-10.88-5q-4.15,0-9.19,5.24t-5,9.79q0,4.74,5,14.24a134.1,134.1,0,0,0,13.25,20.17q8.7,11.67,16.42,18.2t12.18,6.48Zm19.38-95.52L83.86,51Q75.55,27.49,71,20.27t-9.89-7.22a8.25,8.25,0,0,0-6.72,3.17,13.09,13.09,0,0,0-2.57,8.5q0,9.11,6.92,31.65T79.51,115.5a6.56,6.56,0,0,1,3.36-3.06,16.16,16.16,0,0,1,5.93-.89c.8,0,2.38.07,4.75.2s6.26.46,11.67,1Zm22.35,59.92a119.52,119.52,0,0,1-16.12-1.78,86.1,86.1,0,0,1-14.54-3.95q3.16,6.33,5.64,12.66a108.83,108.83,0,0,1,4,12.46,98.07,98.07,0,0,1,10-10.78A84.13,84.13,0,0,1,127.57,172.66Zm26.3-53.2q13.26-36,20.67-59.43T182,31.25q0-5.73-2.47-8.9a8.19,8.19,0,0,0-6.83-3.16q-5.53,0-11.27,9.19T148.73,58L129,115.11Z"/></g></g></g></g></svg>