<svg xmlns="http://www.w3.org/2000/svg" xmlns:xlink="http://www.w3.org/1999/xlink" viewBox="0 0 584 584"><defs><style>.cls-1{fill:url(#radial-gradient);}.cls-2{fill:#fff;}</style><radialGradient id="radial-gradient" cx="292" cy="292" r="289.5" gradientUnits="userSpaceOnUse"><stop offset="0" stop-color="#ffa000"/><stop offset="0.32" stop-color="#ffa300"/><stop offset="0.59" stop-color="#ffae00"/><stop offset="0.84" stop-color="#ffbf00"/><stop offset="1" stop-color="#ffcf00"/></radialGradient></defs><g id="Layer_2" data-name="Layer 2"><g id="Layer_1-2" data-name="Layer 1"><path class="cls-1" d="M292,581.5A289.5,289.5,0,0,1,87.29,87.29,289.5,289.5,0,0,1,496.71,496.71,287.6,287.6,0,0,1,292,581.5Z"/><path class="cls-2" d="M292,5A287.08,287.08,0,0,1,403.71,556.45,287.08,287.08,0,0,1,180.29,27.55,285.26,285.26,0,0,1,292,5m0-5C130.73,0,0,130.73,0,292S130.73,584,292,584,584,453.27,584,292,453.27,0,292,0Z"/><polyline class="cls-2" points="2.47 297.07 290.47 296.5 290.45 287.5 2.46 288.07"/><polyline class="cls-2" points="83.54 91.22 287.59 294.46 293.94 288.08 89.89 84.84"/><polyline class="cls-2" points="286.43 2.97 287 290.97 296 290.95 295.43 2.96"/><polyline class="cls-2" points="492.29 84.04 289.04 288.09 295.42 294.44 498.66 90.39"/><polyline class="cls-2" points="580.53 286.93 292.53 287.5 292.55 296.5 580.54 295.93"/><polyline class="cls-2" points="499.46 492.79 295.41 289.54 289.06 295.92 493.11 499.16"/><polyline class="cls-2" points="296.57 581.03 296 293.03 287 293.05 287.57 581.04"/><polyline class="cls-2" points="90.72 499.96 293.96 295.91 287.58 289.56 84.34 493.61"/></g></g></svg>