<svg id="Layer_1" data-name="Layer 1" xmlns="http://www.w3.org/2000/svg" viewBox="0 0 1000 99.85"><defs><style>.cls-1{fill:#ff00cf;}.cls-2{fill:#9500ff;}.cls-3{fill:#0074ff;}.cls-4{fill:#00cfff;}.cls-5{fill:#45ffed;}.cls-6{fill:#78ffb8;}.cls-7{fill:#8dfff4;}.cls-8{fill:#99e9ff;}.cls-9{fill:#9fe6ff;}.cls-10{fill:#a4cdff;}.cls-11{fill:#a1b3ff;}</style></defs><title>James Graham Colour</title><path class="cls-1" d="M48.69,417.61a25.92,25.92,0,0,1-7.88,19,25.92,25.92,0,0,1-19,7.88,27.51,27.51,0,0,1-11.62-2.66,22,22,0,0,1-9.27-7.32A4.4,4.4,0,0,1,0,432.1a3.67,3.67,0,0,1,1.2-2.74A3.93,3.93,0,0,1,4,428.21a4.27,4.27,0,0,1,2.87,1.43q7.28,7.17,15,7.17a18.51,18.51,0,0,0,13.57-5.63A18.49,18.49,0,0,0,41,417.61V352.33H3.89q-3.84,0-3.84-3.84t3.84-3.84h41q3.78,0,3.78,3.79Z" transform="translate(0 -344.65)"/><path class="cls-2" d="M137.28,417.66q0,3.84-3.84,3.84c-2.63,0-3.91-1.82-3.84-5.48a29.74,29.74,0,0,1-17.92,5.48,30.82,30.82,0,0,1-17-4.77q-8.66-5.53-8.66-14.45t8.66-14.46a31,31,0,0,1,17-4.77,30,30,0,0,1,17.92,5.43v-1.59a8,8,0,0,0-1.59-4.56q-4.71-7-16.33-7a25.89,25.89,0,0,0-13.17,3.79,4.79,4.79,0,0,1-2.3.77,3.64,3.64,0,0,1-2.69-1.21,3.89,3.89,0,0,1-1.15-2.79q0-3.78,8-6.3a38.49,38.49,0,0,1,11.27-1.94,31.05,31.05,0,0,1,16.94,4.76q8.65,5.54,8.66,14.46Zm-7.68-15.38q0-3.64-3.49-6.73a17.94,17.94,0,0,0-6.91-3.74,25.27,25.27,0,0,0-7.52-1.08q-11.9,0-16.54,7.29a7.22,7.22,0,0,0,0,8.52q4.65,7.27,16.54,7.28a25.27,25.27,0,0,0,7.52-1.08,17.94,17.94,0,0,0,6.91-3.74C128.44,407,129.6,404.7,129.6,402.28Z" transform="translate(0 -344.65)"/><path class="cls-3" d="M225.81,417.66q0,3.84-3.84,3.84t-3.84-3.84v-34.6a7.68,7.68,0,1,0-15.36,0v34.6c0,2.56-1.29,3.84-3.84,3.84s-3.85-1.28-3.85-3.84v-34.6a7.68,7.68,0,0,0-15.36,0v34.6q0,3.84-3.84,3.84T172,417.66V371.53q0-3.84,3.84-3.84a3.49,3.49,0,0,1,3.54,2.25,15,15,0,0,1,8-2.25,14.76,14.76,0,0,1,11.53,5.22,15.36,15.36,0,0,1,26.88,10.15Z" transform="translate(0 -344.65)"/><path class="cls-4" d="M311.88,406.05a4.43,4.43,0,0,1-.62,2.1A25,25,0,0,1,300.67,418a29.81,29.81,0,0,1-14.09,3.54,28.41,28.41,0,0,1-19.86-7.63,25.78,25.78,0,0,1,0-38.55,28.75,28.75,0,0,1,28.62-6.15,37.36,37.36,0,0,1,10.19,5.38q6.3,4.6,6.3,8.76a3.4,3.4,0,0,1-2,3.12L271,407.32a20.79,20.79,0,0,0,15.56,6.5q9.89,0,16-6.89l2.18-2.83a4,4,0,0,1,3.15-1.9,4,4,0,0,1,2.76,1.13A3.56,3.56,0,0,1,311.88,406.05Zm-9.66-24.19a20.78,20.78,0,0,0-15.62-6.49,21.18,21.18,0,0,0-14.45,5.39,17.76,17.76,0,0,0-6.41,13.85,17.14,17.14,0,0,0,1.16,6.26Z" transform="translate(0 -344.65)"/><path class="cls-5" d="M394.32,404.17q0,8.2-8.25,13.13a30.08,30.08,0,0,1-15.77,4.2A32.16,32.16,0,0,1,357.76,419q-6.92-2.94-9.63-8.12a4.44,4.44,0,0,1-.56-2,3.5,3.5,0,0,1,1.23-2.67,4,4,0,0,1,2.76-1.13,4.12,4.12,0,0,1,3.23,2q5.07,6.74,15.51,6.74t14.75-5.7a6.5,6.5,0,0,0,1.59-3.95q0-3.14-3.59-5.8a19.21,19.21,0,0,0-6.55-3,26.94,26.94,0,0,0-7-.82,21.51,21.51,0,0,1-11.82-3.33q-6-3.84-6-10.14t6.2-10.13a22.54,22.54,0,0,1,12.08-3.28,24.64,24.64,0,0,1,8.35,1.48,14.54,14.54,0,0,1,7,4.61,4.19,4.19,0,0,1,1,2.51,3.66,3.66,0,0,1-1.21,2.71,3.84,3.84,0,0,1-2.79,1.18q-.66,0-4.22-2.4a14.11,14.11,0,0,0-8.12-2.41q-7,0-9.78,3.79a3.35,3.35,0,0,0-.82,1.94c0,2.46,2.14,4.22,6.4,5.28a22.57,22.57,0,0,0,5.13.51,28.73,28.73,0,0,1,15.46,4.26Q394.31,396.12,394.32,404.17Z" transform="translate(0 -344.65)"/><path class="cls-6" d="M567.38,358.63a3.7,3.7,0,0,1-1.2,2.71,3.88,3.88,0,0,1-2.79,1.18,4,4,0,0,1-3-1.64c-.44-.55-1.16-1.4-2.15-2.56q-5.84-6-12.79-6t-12.63,5.89a30.68,30.68,0,0,0-7.16,12.4,43.07,43.07,0,0,0,0,24.91,30.7,30.7,0,0,0,7.17,12.4q5.68,5.9,12.65,5.89,8,0,14.18-7.59V383.05q0-3.84,3.84-3.84t3.84,3.84v24.51q0,5.28-8.5,9.89-7.51,4.05-13.36,4.05-13.47,0-21.92-12.91a47.58,47.58,0,0,1,0-51q8.43-12.92,21.89-12.91a24.1,24.1,0,0,1,11.92,3.27,26.83,26.83,0,0,1,9.16,8.4A4.08,4.08,0,0,1,567.38,358.63Z" transform="translate(0 -344.65)"/><path class="cls-7" d="M656,380.08a3.68,3.68,0,0,1-1.21,2.74A3.89,3.89,0,0,1,652,384a4.09,4.09,0,0,1-2.87-1.48q-7.07-7.12-15-7.12A19.24,19.24,0,0,0,615,394.59v23.07q0,3.84-3.84,3.84t-3.84-3.84V371.53q0-3.84,3.84-3.84a3.45,3.45,0,0,1,3.69,2.87,36.24,36.24,0,0,1,.15,5.22,25.82,25.82,0,0,1,19.2-8.09,27.7,27.7,0,0,1,11.63,2.66,22,22,0,0,1,9.26,7.32A4.35,4.35,0,0,1,656,380.08Z" transform="translate(0 -344.65)"/><path class="cls-8" d="M739.43,417.66q0,3.84-3.84,3.84c-2.63,0-3.91-1.82-3.84-5.48a29.75,29.75,0,0,1-17.93,5.48,30.81,30.81,0,0,1-16.94-4.77q-8.65-5.53-8.66-14.45t8.66-14.46a31,31,0,0,1,16.94-4.77,30,30,0,0,1,17.93,5.43v-1.59a8,8,0,0,0-1.59-4.56q-4.71-7-16.34-7a25.89,25.89,0,0,0-13.16,3.79,4.79,4.79,0,0,1-2.3.77,3.64,3.64,0,0,1-2.69-1.21,3.89,3.89,0,0,1-1.15-2.79q0-3.78,8-6.3a38.48,38.48,0,0,1,11.26-1.94,31.08,31.08,0,0,1,16.95,4.76q8.65,5.54,8.66,14.46Zm-7.68-15.38q0-3.64-3.49-6.73a17.94,17.94,0,0,0-6.91-3.74,25.29,25.29,0,0,0-7.53-1.08q-11.88,0-16.53,7.29a7.22,7.22,0,0,0,0,8.52q4.65,7.27,16.53,7.28a25.29,25.29,0,0,0,7.53-1.08,17.94,17.94,0,0,0,6.91-3.74C730.59,407,731.75,404.7,731.75,402.28Z" transform="translate(0 -344.65)"/><path class="cls-9" d="M825.4,417.66q0,3.84-3.84,3.84t-3.84-3.84V390.75a15.37,15.37,0,0,0-30.73,0v26.91q0,3.84-3.84,3.84t-3.84-3.84V348.49q0-3.84,3.84-3.84t3.84,3.84v25.09a23,23,0,0,1,38.41,17.17Z" transform="translate(0 -344.65)"/><path class="cls-10" d="M911.47,417.66q0,3.84-3.84,3.84c-2.63,0-3.91-1.82-3.84-5.48a29.72,29.72,0,0,1-17.92,5.48,30.82,30.82,0,0,1-17-4.77q-8.65-5.53-8.65-14.45t8.65-14.46a31,31,0,0,1,17-4.77,30,30,0,0,1,17.92,5.43v-1.59a8,8,0,0,0-1.59-4.56q-4.71-7-16.33-7a25.83,25.83,0,0,0-13.16,3.79,4.85,4.85,0,0,1-2.31.77,3.6,3.6,0,0,1-2.68-1.21,3.9,3.9,0,0,1-1.16-2.79q0-3.78,8-6.3a38.54,38.54,0,0,1,11.27-1.94,31.08,31.08,0,0,1,17,4.76q8.64,5.54,8.65,14.46Zm-7.68-15.38q0-3.64-3.48-6.73a18,18,0,0,0-6.92-3.74,25.27,25.27,0,0,0-7.52-1.08q-11.88,0-16.54,7.29a7.27,7.27,0,0,0,0,8.52q4.67,7.27,16.54,7.28a25.27,25.27,0,0,0,7.52-1.08,18,18,0,0,0,6.92-3.74C902.63,407,903.79,404.7,903.79,402.28Z" transform="translate(0 -344.65)"/><path class="cls-11" d="M1000,417.66q0,3.84-3.84,3.84t-3.84-3.84v-34.6a7.68,7.68,0,1,0-15.36,0v34.6q0,3.84-3.84,3.84t-3.84-3.84v-34.6a7.68,7.68,0,1,0-15.36,0v34.6q0,3.84-3.84,3.84t-3.84-3.84V371.53q0-3.84,3.84-3.84a3.47,3.47,0,0,1,3.53,2.25,15.06,15.06,0,0,1,8-2.25,14.73,14.73,0,0,1,11.52,5.22A15.36,15.36,0,0,1,1000,383.06Z" transform="translate(0 -344.65)"/></svg>