<svg xmlns="http://www.w3.org/2000/svg" viewBox="0 0 436 191.81"><defs><style>.cls-1{fill:#6300ff;}.cls-2{fill:#2b00ff;}.cls-3{fill:#0074ff;}.cls-4{fill:#00cfff;}.cls-5{fill:#45ffed;}.cls-6{fill:#ff0074;}.cls-7{fill:#f0a;}.cls-8{fill:#ff00b7;}.cls-9{fill:#ff004f;}.cls-10{fill:#0068ff;}.cls-11{fill:#009eff;}</style></defs><title>James Graham Colour Slanted</title><g id="Layer_2" data-name="Layer 2"><g id="Layer_1-2" data-name="Layer 1"><path class="cls-1" d="M48.69,95.92a25.92,25.92,0,0,1-7.88,19,25.88,25.88,0,0,1-19,7.88,27.51,27.51,0,0,1-11.62-2.66,22,22,0,0,1-9.27-7.32A4.4,4.4,0,0,1,0,110.41a3.67,3.67,0,0,1,1.2-2.74A4,4,0,0,1,4,106.52,4.24,4.24,0,0,1,6.86,108q7.28,7.16,15,7.16a18.47,18.47,0,0,0,13.57-5.63A18.47,18.47,0,0,0,41,95.92V30.64H3.89Q.05,30.64.05,26.8T3.89,23h41q3.78,0,3.78,3.79Z"/><path class="cls-2" d="M111.28,92q0,3.84-3.84,3.84t-3.84-5.47a29.8,29.8,0,0,1-17.92,5.47,30.81,30.81,0,0,1-17-4.76q-8.66-5.55-8.66-14.46t8.66-14.46a31,31,0,0,1,17-4.77,30,30,0,0,1,17.92,5.43V61.2A8,8,0,0,0,102,56.64q-4.71-7-16.33-7a25.89,25.89,0,0,0-13.17,3.79,4.79,4.79,0,0,1-2.3.77A3.6,3.6,0,0,1,67.52,53a3.89,3.89,0,0,1-1.15-2.79q0-3.78,8-6.29a38.2,38.2,0,0,1,11.27-2,31,31,0,0,1,16.94,4.77q8.66,5.53,8.66,14.45ZM103.6,76.59q0-3.65-3.49-6.73a18.08,18.08,0,0,0-6.91-3.74A25.27,25.27,0,0,0,85.68,65q-11.9,0-16.54,7.29a7.22,7.22,0,0,0,0,8.52q4.65,7.29,16.54,7.28a25.6,25.6,0,0,0,7.52-1.07,18.09,18.09,0,0,0,6.91-3.75Q103.6,80.24,103.6,76.59Z"/><path class="cls-3" d="M177.81,79q0,3.84-3.84,3.84T170.13,79V44.37a7.68,7.68,0,0,0-15.36,0V79c0,2.56-1.29,3.84-3.84,3.84s-3.85-1.28-3.85-3.84V44.37a7.68,7.68,0,0,0-15.36,0V79q0,3.84-3.84,3.84T124,79V32.84Q124,29,127.88,29a3.49,3.49,0,0,1,3.54,2.25,15,15,0,0,1,8-2.25,14.76,14.76,0,0,1,11.53,5.22,15.31,15.31,0,0,1,22.37-.71,14.85,14.85,0,0,1,4.51,10.87Z"/><path class="cls-4" d="M240.88,53.36a4.49,4.49,0,0,1-.62,2.11,25,25,0,0,1-10.59,9.8,29.81,29.81,0,0,1-14.09,3.54,28.41,28.41,0,0,1-19.86-7.63,25,25,0,0,1-8.66-19.27,25,25,0,0,1,8.66-19.27A28.42,28.42,0,0,1,215.58,15a28,28,0,0,1,8.76,1.49,37,37,0,0,1,10.19,5.37q6.3,4.61,6.3,8.76a3.4,3.4,0,0,1-2,3.12L200,54.63a20.79,20.79,0,0,0,15.56,6.5q9.88,0,16-6.89c.48-.61,1.2-1.56,2.18-2.83a4.06,4.06,0,0,1,3.15-1.9,4,4,0,0,1,2.76,1.13A3.56,3.56,0,0,1,240.88,53.36Zm-9.66-24.19a20.78,20.78,0,0,0-15.62-6.49,21.23,21.23,0,0,0-14.45,5.39,17.76,17.76,0,0,0-6.41,13.85,17.14,17.14,0,0,0,1.16,6.26Z"/><path class="cls-5" d="M297.32,36.48q0,8.21-8.25,13.13a30.08,30.08,0,0,1-15.77,4.2,32,32,0,0,1-12.54-2.51q-6.92-2.92-9.63-8.12a4.41,4.41,0,0,1-.56-2,3.5,3.5,0,0,1,1.23-2.67,4,4,0,0,1,2.76-1.13,4.12,4.12,0,0,1,3.23,2q5.07,6.75,15.51,6.74t14.75-5.69a6.55,6.55,0,0,0,1.59-4q0-3.13-3.59-5.8a19.21,19.21,0,0,0-6.55-3,27.38,27.38,0,0,0-7-.82,21.51,21.51,0,0,1-11.82-3.33q-6-3.84-6-10.14t6.2-10.13A22.54,22.54,0,0,1,272.94,0a24.41,24.41,0,0,1,8.35,1.49,14.46,14.46,0,0,1,7,4.6,4.19,4.19,0,0,1,1,2.51,3.68,3.68,0,0,1-1.21,2.72,3.87,3.87,0,0,1-2.79,1.17q-.66,0-4.22-2.4a14.11,14.11,0,0,0-8.12-2.41q-7,0-9.78,3.79a3.4,3.4,0,0,0-.82,1.94c0,2.46,2.14,4.22,6.4,5.28a22.57,22.57,0,0,0,5.13.51,28.73,28.73,0,0,1,15.46,4.26Q297.31,28.42,297.32,36.48Z"/><path class="cls-6" d="M136.38,128.94a3.69,3.69,0,0,1-1.2,2.71,3.84,3.84,0,0,1-2.79,1.18,4,4,0,0,1-3-1.64c-.44-.55-1.16-1.4-2.15-2.56q-5.84-6-12.79-6t-12.63,5.89a30.68,30.68,0,0,0-7.16,12.4,43.07,43.07,0,0,0,0,24.91,30.7,30.7,0,0,0,7.17,12.4q5.68,5.89,12.65,5.89,8,0,14.18-7.58V153.37q0-3.85,3.84-3.85t3.84,3.85v24.5q0,5.28-8.5,9.89-7.51,4.05-13.36,4.05-13.47,0-21.92-12.91a47.58,47.58,0,0,1,0-51Q101,115,114.49,115a24,24,0,0,1,11.92,3.28,26.91,26.91,0,0,1,9.16,8.39A4.1,4.1,0,0,1,136.38,128.94Z"/><path class="cls-7" d="M200,132.39a3.68,3.68,0,0,1-1.21,2.74,3.89,3.89,0,0,1-2.79,1.15,4.09,4.09,0,0,1-2.87-1.48q-7.07-7.12-14.95-7.12A19.24,19.24,0,0,0,159,146.9V170q0,3.84-3.84,3.84T151.27,170V123.84q0-3.84,3.84-3.84a3.45,3.45,0,0,1,3.69,2.87,36.24,36.24,0,0,1,.15,5.22,25.82,25.82,0,0,1,19.2-8.09,27.7,27.7,0,0,1,11.63,2.66A22.1,22.1,0,0,1,199,130,4.35,4.35,0,0,1,200,132.39Z"/><path class="cls-8" d="M256.43,154q0,3.84-3.84,3.84t-3.84-5.47a29.81,29.81,0,0,1-17.93,5.47,30.8,30.8,0,0,1-16.94-4.76q-8.65-5.55-8.66-14.46t8.66-14.46a31,31,0,0,1,16.94-4.77,30,30,0,0,1,17.93,5.43V123.2a8,8,0,0,0-1.59-4.56q-4.71-7-16.34-7a25.89,25.89,0,0,0-13.16,3.79,4.79,4.79,0,0,1-2.3.77,3.6,3.6,0,0,1-2.69-1.21,3.89,3.89,0,0,1-1.15-2.79q0-3.78,8-6.29a38.19,38.19,0,0,1,11.26-2,31,31,0,0,1,17,4.77q8.65,5.53,8.66,14.45Zm-7.68-15.38q0-3.65-3.49-6.73a18.08,18.08,0,0,0-6.91-3.74,25.29,25.29,0,0,0-7.53-1.08q-11.88,0-16.53,7.29a7.22,7.22,0,0,0,0,8.52q4.65,7.29,16.53,7.28a25.61,25.61,0,0,0,7.53-1.07,18.09,18.09,0,0,0,6.91-3.75Q248.76,142.23,248.75,138.59Z"/><path class="cls-9" d="M313.4,142q0,3.84-3.84,3.84T305.72,142V115.06a15.37,15.37,0,0,0-30.73,0V142q0,3.84-3.84,3.84T267.31,142V72.8q0-3.84,3.84-3.84T275,72.8V97.89a23.05,23.05,0,0,1,38.41,17.17Z"/><path class="cls-10" d="M371.47,127q0,3.84-3.84,3.84t-3.84-5.47a29.78,29.78,0,0,1-17.92,5.47,30.81,30.81,0,0,1-16.95-4.76q-8.66-5.55-8.65-14.46t8.65-14.46a31,31,0,0,1,16.95-4.77,30,30,0,0,1,17.92,5.43V96.2a8,8,0,0,0-1.59-4.56q-4.71-7-16.33-7a25.83,25.83,0,0,0-13.16,3.79,4.85,4.85,0,0,1-2.31.77A3.57,3.57,0,0,1,327.72,88a3.9,3.9,0,0,1-1.16-2.79q0-3.78,8-6.29a38.25,38.25,0,0,1,11.27-2,31,31,0,0,1,16.95,4.77q8.64,5.53,8.65,14.45Zm-7.68-15.38q0-3.65-3.48-6.73a18.12,18.12,0,0,0-6.92-3.74,25.27,25.27,0,0,0-7.52-1.08q-11.88,0-16.54,7.29a7.27,7.27,0,0,0,0,8.52q4.67,7.29,16.54,7.28a25.6,25.6,0,0,0,7.52-1.07,18.14,18.14,0,0,0,6.92-3.75Q363.79,115.24,363.79,111.59Z"/><path class="cls-11" d="M436,111q0,3.84-3.84,3.84T428.32,111V76.37a7.68,7.68,0,0,0-15.36,0V111q0,3.84-3.84,3.84T405.28,111V76.37a7.68,7.68,0,0,0-15.36,0V111q0,3.84-3.84,3.84T382.24,111V64.84q0-3.84,3.84-3.84a3.47,3.47,0,0,1,3.53,2.25,15.06,15.06,0,0,1,8-2.25,14.73,14.73,0,0,1,11.52,5.22A15.36,15.36,0,0,1,436,76.38Z"/></g></g></svg>