<svg xmlns="http://www.w3.org/2000/svg" viewBox="0 0 97.17 99.83"><defs><style>.cls-1{fill:#ffe4ff;fill-rule:evenodd;}</style></defs><g id="Layer_2" data-name="Layer 2"><g id="svg2"><g id="layer1"><g id="g2844"><path id="path2830" class="cls-1" d="M0,59v1c0,2.15,1.43,4.16,2.33,5.6l3.08,5,2.2-23L3.28,52.77C2.05,54.41,0,56.24,0,59ZM56,37.34h2.49v6.08H56.78V40L55.73,43.4H54.49L53.23,40v3.46H51.71V37.32H54l1.05,3.42.92-3.4Zm-4.77,0V39H49.35v4.39h-2V39H45.46V37.33ZM13.86,40.2l3.86-.34L15,79.59l-4.73-.71,9.08,15.58c1.55,2.66,3.71,5.26,6.3,5.37H26a9.39,9.39,0,0,0,5.27-3.35l12.64-13.2-.51,0L30,81.59l.39-17.23c-.2-2-3.15-1.8-4.33-1.8l-5.82-.06H18.46l.47-8.13,8.62-.3c1.81-.06,3.21-.53,3.21-2.89v-3c0-1.65-1.48-2.31-3.38-2.16l-7.94.64.33-7.11,16.06-2H38c1.72,0,3.71,1.84,4.52,2.91,1.22,1.61,1.4,3.28,1.4,6,0,7.85.75,6.66-2.71,11.83,1,1.54,1.91,1.83,2.6,4.16a19.78,19.78,0,0,1,.62,6.31c0,4.74.17,8.92.17,13.68L94.16,32c1.59-1.62,3-3.67,3-5.62V26c0-3.38-2.71-5.47-5.6-6.88L54.7,1.25A9.05,9.05,0,0,0,50.7,0C45.87,0,42.43,5.65,40,8.57L13.86,40.2"/></g></g></g></g></svg>