<svg id="Layer_1" data-name="Layer 1" xmlns="http://www.w3.org/2000/svg" viewBox="0 0 1000 99.85"><defs><style>.cls-1{fill:#6f00ff;}.cls-2{fill:#40f;}.cls-3{fill:#0074ff;}.cls-4{fill:#00bdff;}.cls-5{fill:#4addff;}.cls-6{fill:#5000ff;}.cls-7{fill:#0019ff;}.cls-8{fill:#007aff;}.cls-9{fill:#0098ff;}.cls-10{fill:#00c3ff;}.cls-11{fill:#00e1ff;}</style></defs><title>James-Graham-Colour</title><path class="cls-1" d="M48.69,73a25.93,25.93,0,0,1-7.88,19,25.93,25.93,0,0,1-19,7.88,27.48,27.48,0,0,1-11.62-2.66A22,22,0,0,1,.92,89.86,4.39,4.39,0,0,1,0,87.45a3.66,3.66,0,0,1,1.2-2.74A3.92,3.92,0,0,1,4,83.56,4.28,4.28,0,0,1,6.87,85q7.28,7.17,15,7.17a18.48,18.48,0,0,0,13.57-5.63A18.48,18.48,0,0,0,41,73V7.68H3.89Q.05,7.68.05,3.84T3.89,0h41q3.78,0,3.78,3.79Z"/><path class="cls-2" d="M137.28,73q0,3.84-3.84,3.84c-2.63,0-3.91-1.82-3.84-5.48a29.76,29.76,0,0,1-17.92,5.48,30.87,30.87,0,0,1-17-4.77Q86,66.55,86,57.63t8.66-14.46a31,31,0,0,1,17-4.77,30,30,0,0,1,17.92,5.43V42.24A8,8,0,0,0,128,37.68q-4.71-7-16.33-7a26,26,0,0,0-13.17,3.79,4.85,4.85,0,0,1-2.3.77A3.68,3.68,0,0,1,93.52,34a3.89,3.89,0,0,1-1.15-2.79q0-3.78,8-6.3A38.59,38.59,0,0,1,111.64,23a31,31,0,0,1,16.94,4.76q8.65,5.54,8.66,14.46ZM129.6,57.63q0-3.65-3.49-6.73a18,18,0,0,0-6.91-3.74,25.2,25.2,0,0,0-7.52-1.08q-11.9,0-16.54,7.29a7.23,7.23,0,0,0,0,8.52q4.65,7.27,16.54,7.28a25.2,25.2,0,0,0,7.52-1.08,18,18,0,0,0,6.91-3.74A8.84,8.84,0,0,0,129.6,57.63Z"/><path class="cls-3" d="M225.81,73q0,3.84-3.84,3.84T218.13,73V38.41a7.68,7.68,0,0,0-15.36,0V73c0,2.56-1.29,3.84-3.84,3.84s-3.85-1.28-3.85-3.84V38.41a7.68,7.68,0,0,0-15.36,0V73q0,3.84-3.84,3.84T172,73V26.88Q172,23,175.84,23a3.5,3.5,0,0,1,3.54,2.25,15,15,0,0,1,8-2.25,14.77,14.77,0,0,1,11.53,5.22,15.36,15.36,0,0,1,26.88,10.15Z"/><path class="cls-4" d="M311.88,61.4a4.46,4.46,0,0,1-.62,2.1,25,25,0,0,1-10.59,9.85,29.84,29.84,0,0,1-14.09,3.54,28.42,28.42,0,0,1-19.86-7.63,25.77,25.77,0,0,1-2.16-36.39,27.51,27.51,0,0,1,2.16-2.16,28.75,28.75,0,0,1,28.62-6.15,37.56,37.56,0,0,1,10.19,5.38q6.3,4.6,6.3,8.76a3.41,3.41,0,0,1-2,3.12L271,62.67a20.78,20.78,0,0,0,15.56,6.5q9.88,0,16-6.89l2.18-2.83a3.71,3.71,0,0,1,5.91-.77A3.55,3.55,0,0,1,311.88,61.4Zm-9.66-24.19a20.78,20.78,0,0,0-15.62-6.49,21.2,21.2,0,0,0-14.45,5.39A17.76,17.76,0,0,0,265.74,50a17.2,17.2,0,0,0,1.16,6.26Z"/><path class="cls-5" d="M394.32,59.52q0,8.2-8.25,13.13a30.06,30.06,0,0,1-15.77,4.2,32.3,32.3,0,0,1-12.54-2.5q-6.92-2.94-9.63-8.12a4.52,4.52,0,0,1-.56-2,3.51,3.51,0,0,1,1.23-2.67,4,4,0,0,1,2.76-1.13,4.13,4.13,0,0,1,3.23,2q5.07,6.74,15.51,6.74t14.75-5.7a6.48,6.48,0,0,0,1.59-3.95c0-2.09-1.2-4-3.59-5.8a19.31,19.31,0,0,0-6.55-3,27.08,27.08,0,0,0-7-.82,21.56,21.56,0,0,1-11.82-3.33q-6-3.84-6-10.14t6.2-10.13A22.55,22.55,0,0,1,370,23a24.77,24.77,0,0,1,8.35,1.48,14.55,14.55,0,0,1,7,4.61,4.22,4.22,0,0,1,1,2.51,3.65,3.65,0,0,1-1.21,2.71,3.82,3.82,0,0,1-2.79,1.18q-.66,0-4.22-2.4A14.07,14.07,0,0,0,370,30.7q-7,0-9.78,3.79a3.39,3.39,0,0,0-.82,1.94c0,2.46,2.14,4.22,6.4,5.28a22.11,22.11,0,0,0,5.13.51,28.68,28.68,0,0,1,15.46,4.26Q394.31,51.48,394.32,59.52Z"/><path class="cls-6" d="M567.38,14a3.69,3.69,0,0,1-1.2,2.71,3.86,3.86,0,0,1-2.79,1.18,4,4,0,0,1-3-1.64c-.44-.55-1.16-1.4-2.15-2.56q-5.84-6-12.79-6t-12.63,5.89A30.75,30.75,0,0,0,525.66,26a43.13,43.13,0,0,0,0,24.91,30.77,30.77,0,0,0,7.17,12.4q5.68,5.9,12.65,5.89,8,0,14.18-7.59V38.4q0-3.84,3.84-3.84t3.84,3.84V62.91q0,5.28-8.5,9.89-7.51,4-13.36,4-13.47,0-21.92-12.91a47.58,47.58,0,0,1,0-51Q532,0,545.45,0A24.12,24.12,0,0,1,557.37,3.3a26.72,26.72,0,0,1,9.16,8.4A4,4,0,0,1,567.38,14Z"/><path class="cls-7" d="M656,35.43a3.71,3.71,0,0,1-1.21,2.74A3.9,3.9,0,0,1,652,39.35a4.07,4.07,0,0,1-2.87-1.48q-7.07-7.12-15-7.12A19.25,19.25,0,0,0,615,49.94V73q0,3.84-3.84,3.84T607.32,73V26.88q0-3.84,3.84-3.84a3.45,3.45,0,0,1,3.69,2.87,35,35,0,0,1,.15,5.22A25.84,25.84,0,0,1,634.2,23a27.71,27.71,0,0,1,11.63,2.66A21.94,21.94,0,0,1,655.09,33,4.31,4.31,0,0,1,656,35.43Z"/><path class="cls-8" d="M739.43,73q0,3.84-3.84,3.84c-2.63,0-3.91-1.82-3.84-5.48a29.79,29.79,0,0,1-17.93,5.48,30.84,30.84,0,0,1-16.94-4.77q-8.65-5.53-8.66-14.45t8.66-14.46a31,31,0,0,1,16.94-4.77,30,30,0,0,1,17.93,5.43V42.24a8,8,0,0,0-1.59-4.56q-4.71-7-16.34-7a25.91,25.91,0,0,0-13.16,3.79,4.85,4.85,0,0,1-2.3.77A3.68,3.68,0,0,1,695.67,34a3.89,3.89,0,0,1-1.15-2.79q0-3.78,8-6.3A38.52,38.52,0,0,1,713.78,23a31.05,31.05,0,0,1,17,4.76q8.65,5.54,8.66,14.46Zm-7.68-15.38q0-3.65-3.49-6.73a18,18,0,0,0-6.91-3.74,25.26,25.26,0,0,0-7.53-1.08q-11.88,0-16.53,7.29a7.23,7.23,0,0,0,0,8.52q4.65,7.27,16.53,7.28a25.26,25.26,0,0,0,7.53-1.08,18,18,0,0,0,6.91-3.74A8.84,8.84,0,0,0,731.75,57.63Z"/><path class="cls-9" d="M825.4,73q0,3.84-3.84,3.84T817.72,73V46.1a15.37,15.37,0,0,0-30.73,0V73q0,3.84-3.84,3.84T779.31,73V3.84q0-3.84,3.84-3.84T787,3.84V28.93A23,23,0,0,1,825.4,46.1Z"/><path class="cls-10" d="M911.47,73q0,3.84-3.84,3.84c-2.63,0-3.91-1.82-3.84-5.48a29.76,29.76,0,0,1-17.92,5.48,30.87,30.87,0,0,1-17-4.77q-8.65-5.53-8.65-14.45t8.65-14.46a31,31,0,0,1,17-4.77,30,30,0,0,1,17.92,5.43V42.24a8,8,0,0,0-1.59-4.56q-4.71-7-16.33-7a25.91,25.91,0,0,0-13.16,3.79,4.88,4.88,0,0,1-2.31.77A3.58,3.58,0,0,1,867.72,34a3.9,3.9,0,0,1-1.16-2.79q0-3.78,8-6.3A38.59,38.59,0,0,1,885.83,23a31.05,31.05,0,0,1,17,4.76q8.64,5.54,8.65,14.46Zm-7.68-15.38q0-3.65-3.48-6.73a18,18,0,0,0-6.92-3.74,25.2,25.2,0,0,0-7.52-1.08q-11.88,0-16.54,7.29a7.27,7.27,0,0,0,0,8.52q4.67,7.27,16.54,7.28a25.2,25.2,0,0,0,7.52-1.08,18,18,0,0,0,6.92-3.74A8.86,8.86,0,0,0,903.79,57.63Z"/><path class="cls-11" d="M1000,73q0,3.84-3.84,3.84T992.32,73V38.41a7.68,7.68,0,0,0-15.36,0V73q0,3.84-3.84,3.84T969.28,73V38.41a7.68,7.68,0,1,0-15.36,0V73q0,3.84-3.84,3.84T946.24,73V26.88q0-3.84,3.84-3.84a3.47,3.47,0,0,1,3.53,2.25,15,15,0,0,1,8-2.25,14.75,14.75,0,0,1,11.52,5.22A15.36,15.36,0,0,1,1000,38.41Z"/></svg>