{
    "asset" : {
        "generator" : "Khronos glTF Blender I/O v1.8.19",
        "version" : "2.0"
    },
    "scene" : 0,
    "scenes" : [
        {
            "name" : "Scene",
            "nodes" : [
                0
            ]
        }
    ],
    "nodes" : [
        {
            "mesh" : 0,
            "name" : "Text"
        }
    ],
    "meshes" : [
        {
            "name" : "Text",
            "primitives" : [
                {
                    "attributes" : {
                        "POSITION" : 0,
                        "NORMAL" : 1,
                        "TEXCOORD_0" : 2
                    },
                    "indices" : 3
                }
            ]
        }
    ],
    "accessors" : [
        {
            "bufferView" : 0,
            "componentType" : 5126,
            "count" : 10290,
            "max" : [
                6.84470796585083,
                0.19143305718898773,
                0.23255079984664917
            ],
            "min" : [
                -0.015314497984945774,
                -0.19143305718898773,
                -0.6704725623130798
            ],
            "type" : "VEC3"
        },
        {
            "bufferView" : 1,
            "componentType" : 5126,
            "count" : 10290,
            "type" : "VEC3"
        },
        {
            "bufferView" : 2,
            "componentType" : 5126,
            "count" : 10290,
            "type" : "VEC2"
        },
        {
            "bufferView" : 3,
            "componentType" : 5123,
            "count" : 41106,
            "type" : "SCALAR"
        }
    ],
    "bufferViews" : [
        {
            "buffer" : 0,
            "byteLength" : 123480,
            "byteOffset" : 0
        },
        {
            "buffer" : 0,
            "byteLength" : 123480,
            "byteOffset" : 123480
        },
        {
            "buffer" : 0,
            "byteLength" : 82320,
            "byteOffset" : 246960
        },
        {
            "buffer" : 0,
            "byteLength" : 82212,
            "byteOffset" : 329280
        }
    ],
    "buffers" : [
        {
            "byteLength" : 411492,
            "uri" : "data:application/octet-stream;base64,"
        }
    ]
}
