<svg xmlns="http://www.w3.org/2000/svg" viewBox="0 0 51.25 25"><defs><style>.cls-1{fill:#43969c;fill-rule:evenodd;}</style></defs><g id="Layer_2" data-name="Layer 2"><g id="Layer_1-2" data-name="Layer 1"><path class="cls-1" d="M51.25,12.5A12.58,12.58,0,0,0,38.62,0a11.41,11.41,0,0,0-1.93.15c-5.41.78-9,4.78-11.07,7.84C23.6,4.93,20,.93,14.56.15A12.62,12.62,0,0,0,0,12.5,12.58,12.58,0,0,0,12.63,25a11.81,11.81,0,0,0,1.95-.15c5.41-.8,9-4.8,11.06-7.86,2,3.06,5.66,7.06,11.06,7.86a12.74,12.74,0,0,0,2,.15A12.57,12.57,0,0,0,51.25,12.5Zm-37.31,8a7.45,7.45,0,0,1-1.33.1A8.21,8.21,0,0,1,4.3,12.5a8.21,8.21,0,0,1,8.33-8.07,10,10,0,0,1,1.33.1c5.1.74,8.22,5.91,9.28,8C22.16,14.58,19,19.73,13.94,20.47ZM37.29,4.53c-5.1.74-8.23,5.91-9.28,8,1,2.06,4.18,7.23,9.28,8a10,10,0,0,0,1.33.1,8.21,8.21,0,0,0,8.31-8.07,8.21,8.21,0,0,0-8.31-8.07A10,10,0,0,0,37.29,4.53ZM9.06,11.16H16.7v2.4H9.06Zm33.09,2.42H39.57v2.53H37.1V13.58H34.53V11.16H37.1V8.63h2.47v2.53h2.58Z"/></g></g></svg>