<svg xmlns="http://www.w3.org/2000/svg" viewBox="0 0 370 234"><defs><style>.cls-1{fill:#5abfee;}.cls-2{fill:#fff24c;}.cls-3{fill:#ccd952;}.cls-4{fill:#8580b8;}.cls-5{fill:#fff;}.cls-6{fill:#d83188;}</style></defs><g id="Layer_2" data-name="Layer 2"><g id="traces"><path class="cls-1" d="M0,35.79V141.5H.08A95.78,95.78,0,0,0,92.5,233.92V234H370V35.79Zm297.32,99.1V55.61h23.13v79.28a49.56,49.56,0,0,1-49.56,49.56V161.32A26.43,26.43,0,0,0,297.32,134.89ZM165.18,85.34h26.43a49.56,49.56,0,0,1,0,99.11V161.32a26.43,26.43,0,0,0,0-52.86H165.18ZM99.11,214.18a79.29,79.29,0,0,1-79.29-79.29V55.61H43v79.28a56.16,56.16,0,0,0,56.16,56.16Zm0-29.73a49.56,49.56,0,0,1-49.56-49.56V55.61H72.68v79.28a26.43,26.43,0,0,0,26.43,26.43ZM185,161.32a52.86,52.86,0,0,1-52.86,52.86H105.71V191.05h26.44v-6.6H105.71V161.32h23.13v-.11a52.86,52.86,0,0,1-49.55-52.75h0a52.85,52.85,0,0,1,52.85-52.85h26.43V78.73H132.15a29.74,29.74,0,1,0,0,59.47,23.12,23.12,0,0,1,23.12,23.12h0a23.13,23.13,0,0,1-23.12,23.13v6.6a29.73,29.73,0,0,0,29.73-29.73h0a29.73,29.73,0,0,0-29.73-29.73,23.13,23.13,0,1,1,0-46.25h26.42v23.12H135.45v.12A52.84,52.84,0,0,1,185,161.32Zm6.61,52.86V191.05a56.16,56.16,0,0,0,0-112.32H165.18V55.61h26.43a79.29,79.29,0,0,1,0,158.57Zm145.14-8.09h-2.81v8.09H331.4v-8.09h-2.7V204h8.05Zm13.43,8.09h-2.29v-6.9l-2.48,6.9h-2.3l-2.44-6.9v6.9h-2.29V204h3.42l2.48,7.4,2.5-7.4h3.4Zm0-79.29a79.29,79.29,0,0,1-79.29,79.29V191.05a56.16,56.16,0,0,0,56.16-56.16V55.61h23.13Z"/><path class="cls-2" d="M0,27V132.71H.08A95.78,95.78,0,0,0,92.5,225.13v.08H370V27Zm297.32,99.11V46.82h23.13v79.29a49.55,49.55,0,0,1-49.56,49.55V152.54A26.43,26.43,0,0,0,297.32,126.11ZM165.18,76.55h26.43a49.56,49.56,0,0,1,0,99.11V152.54a26.43,26.43,0,0,0,0-52.86H165.18ZM99.11,205.39a79.28,79.28,0,0,1-79.29-79.28V46.82H43v79.29a56.16,56.16,0,0,0,56.16,56.16Zm0-29.73a49.56,49.56,0,0,1-49.56-49.55V46.82H72.68v79.29a26.43,26.43,0,0,0,26.43,26.43ZM185,152.54a52.85,52.85,0,0,1-52.86,52.85H105.71V182.27h26.44v-6.61H105.71V152.54h23.13v-.12A52.85,52.85,0,0,1,79.29,99.68h0a52.85,52.85,0,0,1,52.85-52.85h26.43V70H132.15a29.73,29.73,0,1,0,0,59.46,23.12,23.12,0,0,1,23.12,23.13h0a23.12,23.12,0,0,1-23.12,23.12v6.61a29.73,29.73,0,0,0,29.73-29.73h0a29.74,29.74,0,0,0-29.73-29.74,23.13,23.13,0,1,1,0-46.25h26.42V99.68H135.45v.11A52.85,52.85,0,0,1,185,152.54Zm6.61,52.85V182.27a56.16,56.16,0,0,0,0-112.32H165.18V46.82h26.43a79.29,79.29,0,0,1,0,158.57Zm145.14-8.09h-2.81v8.09H331.4V197.3h-2.7v-2.07h8.05Zm13.43,8.09h-2.29V198.5l-2.48,6.89h-2.3l-2.44-6.89v6.89h-2.29V195.23h3.42l2.48,7.4,2.5-7.4h3.4Zm0-79.28a79.28,79.28,0,0,1-79.29,79.28V182.27a56.16,56.16,0,0,0,56.16-56.16V46.82h23.13Z"/><path class="cls-3" d="M0,17.79V123.5H.08A95.78,95.78,0,0,0,92.5,215.92V216H370V17.79Zm297.32,99.1V37.61h23.13v79.28a49.56,49.56,0,0,1-49.56,49.56V143.32A26.43,26.43,0,0,0,297.32,116.89ZM165.18,67.34h26.43a49.56,49.56,0,0,1,0,99.11V143.32a26.43,26.43,0,0,0,0-52.86H165.18ZM99.11,196.18a79.29,79.29,0,0,1-79.29-79.29V37.61H43v79.28a56.16,56.16,0,0,0,56.16,56.16Zm0-29.73a49.56,49.56,0,0,1-49.56-49.56V37.61H72.68v79.28a26.43,26.43,0,0,0,26.43,26.43ZM185,143.32a52.86,52.86,0,0,1-52.86,52.86H105.71V173.05h26.44v-6.6H105.71V143.32h23.13v-.11A52.86,52.86,0,0,1,79.29,90.46h0a52.85,52.85,0,0,1,52.85-52.85h26.43V60.73H132.15a29.74,29.74,0,1,0,0,59.47,23.12,23.12,0,0,1,23.12,23.12h0a23.13,23.13,0,0,1-23.12,23.13v6.6a29.73,29.73,0,0,0,29.73-29.73h0a29.73,29.73,0,0,0-29.73-29.73,23.13,23.13,0,1,1,0-46.25h26.42V90.46H135.45v.12A52.84,52.84,0,0,1,185,143.32Zm6.61,52.86V173.05a56.16,56.16,0,0,0,0-112.32H165.18V37.61h26.43a79.29,79.29,0,0,1,0,158.57Zm145.14-8.09h-2.81v8.09H331.4v-8.09h-2.7V186h8.05Zm13.43,8.09h-2.29v-6.9l-2.48,6.9h-2.3l-2.44-6.9v6.9h-2.29V186h3.42l2.48,7.4,2.5-7.4h3.4Zm0-79.29a79.29,79.29,0,0,1-79.29,79.29V173.05a56.16,56.16,0,0,0,56.16-56.16V37.61h23.13Z"/><path class="cls-4" d="M0,8.79V114.5H.08A95.78,95.78,0,0,0,92.5,206.92V207H370V8.79Zm297.32,99.1V28.61h23.13v79.28a49.56,49.56,0,0,1-49.56,49.56V134.32A26.43,26.43,0,0,0,297.32,107.89ZM165.18,58.34h26.43a49.56,49.56,0,0,1,0,99.11V134.32a26.43,26.43,0,0,0,0-52.86H165.18ZM99.11,187.18a79.29,79.29,0,0,1-79.29-79.29V28.61H43v79.28a56.16,56.16,0,0,0,56.16,56.16Zm0-29.73a49.56,49.56,0,0,1-49.56-49.56V28.61H72.68v79.28a26.43,26.43,0,0,0,26.43,26.43ZM185,134.32a52.86,52.86,0,0,1-52.86,52.86H105.71V164.05h26.44v-6.6H105.71V134.32h23.13v-.11A52.86,52.86,0,0,1,79.29,81.46h0a52.85,52.85,0,0,1,52.85-52.85h26.43V51.73H132.15a29.74,29.74,0,1,0,0,59.47,23.12,23.12,0,0,1,23.12,23.12h0a23.13,23.13,0,0,1-23.12,23.13v6.6a29.73,29.73,0,0,0,29.73-29.73h0a29.73,29.73,0,0,0-29.73-29.73,23.13,23.13,0,1,1,0-46.25h26.42V81.46H135.45v.12A52.84,52.84,0,0,1,185,134.32Zm6.61,52.86V164.05a56.16,56.16,0,0,0,0-112.32H165.18V28.61h26.43a79.29,79.29,0,0,1,0,158.57Zm145.14-8.09h-2.81v8.09H331.4v-8.09h-2.7V177h8.05Zm13.43,8.09h-2.29v-6.9l-2.48,6.9h-2.3l-2.44-6.9v6.9h-2.29V177h3.42l2.48,7.4,2.5-7.4h3.4Zm0-79.29a79.29,79.29,0,0,1-79.29,79.29V164.05a56.16,56.16,0,0,0,56.16-56.16V28.61h23.13Z"/></g><g id="main_logo" data-name="main logo"><polygon class="cls-5" points="15 15.5 15 143.58 46.21 180 355.5 180 355.5 15.5 15 15.5"/><path class="cls-6" d="M0,0V105.71H.08A95.78,95.78,0,0,0,92.5,198.13v.08H370V0ZM297.32,99.11V19.82h23.13V99.11a49.55,49.55,0,0,1-49.56,49.55V125.54A26.43,26.43,0,0,0,297.32,99.11ZM165.18,49.55h26.43a49.56,49.56,0,0,1,0,99.11V125.54a26.43,26.43,0,0,0,0-52.86H165.18ZM99.11,178.39A79.28,79.28,0,0,1,19.82,99.11V19.82H43V99.11a56.16,56.16,0,0,0,56.16,56.16Zm0-29.73A49.56,49.56,0,0,1,49.55,99.11V19.82H72.68V99.11a26.43,26.43,0,0,0,26.43,26.43ZM185,125.54a52.85,52.85,0,0,1-52.86,52.85H105.71V155.27h26.44v-6.61H105.71V125.54h23.13v-.12A52.85,52.85,0,0,1,79.29,72.68h0a52.85,52.85,0,0,1,52.85-52.85h26.43V43H132.15a29.73,29.73,0,1,0,0,59.46,23.12,23.12,0,0,1,23.12,23.13h0a23.12,23.12,0,0,1-23.12,23.12v6.61a29.73,29.73,0,0,0,29.73-29.73h0A29.74,29.74,0,0,0,132.15,95.8a23.13,23.13,0,1,1,0-46.25h26.42V72.68H135.45v.11A52.85,52.85,0,0,1,185,125.54Zm6.61,52.85V155.27a56.16,56.16,0,0,0,0-112.32H165.18V19.82h26.43a79.29,79.29,0,0,1,0,158.57Zm145.14-8.09h-2.81v8.09H331.4V170.3h-2.7v-2.07h8.05Zm13.43,8.09h-2.29V171.5l-2.48,6.89h-2.3l-2.44-6.89v6.89h-2.29V168.23h3.42l2.48,7.4,2.5-7.4h3.4Zm0-79.28a79.28,79.28,0,0,1-79.29,79.28V155.27a56.16,56.16,0,0,0,56.16-56.16V19.82h23.13Z"/></g></g></svg>