<svg xmlns="http://www.w3.org/2000/svg" viewBox="0 0 370 198.21"><g id="Layer_2" data-name="Layer 2"><g id="Layer_1-2" data-name="Layer 1"><path d="M0,0V105.71H.08A95.78,95.78,0,0,0,92.5,198.13v.08H370V0ZM297.32,99.11V19.82h23.13V99.11a49.55,49.55,0,0,1-49.56,49.55V125.54A26.43,26.43,0,0,0,297.32,99.11ZM165.18,49.55h26.43a49.56,49.56,0,0,1,0,99.11V125.54a26.43,26.43,0,0,0,0-52.86H165.18ZM99.11,178.39A79.28,79.28,0,0,1,19.82,99.11V19.82H43V99.11a56.16,56.16,0,0,0,56.16,56.16Zm0-29.73A49.56,49.56,0,0,1,49.55,99.11V19.82H72.68V99.11a26.43,26.43,0,0,0,26.43,26.43ZM185,125.54a52.85,52.85,0,0,1-52.86,52.85H105.71V155.27h26.43v-6.61H105.71V125.54h23.13v-.12A52.85,52.85,0,0,1,79.29,72.68h0a52.85,52.85,0,0,1,52.85-52.85h26.43V43H132.14a29.73,29.73,0,1,0,0,59.46,23.12,23.12,0,0,1,23.13,23.13h0a23.12,23.12,0,0,1-23.12,23.12v6.61a29.73,29.73,0,0,0,29.73-29.73h0A29.74,29.74,0,0,0,132.14,95.8a23.13,23.13,0,0,1,0-46.25h26.43V72.68H135.45v.11A52.85,52.85,0,0,1,185,125.54Zm6.61,52.85V155.27a56.16,56.16,0,0,0,0-112.32H165.18V19.82h26.43a79.29,79.29,0,0,1,0,158.57Zm145.14-8.09h-2.81v8.09H331.4V170.3h-2.7v-2.07h8.05Zm13.43,8.09h-2.29V171.5l-2.48,6.89h-2.3l-2.44-6.89v6.89h-2.29V168.23h3.42l2.48,7.4,2.5-7.4h3.4Zm0-79.28a79.28,79.28,0,0,1-79.29,79.28V155.27a56.16,56.16,0,0,0,56.16-56.16V19.82h23.13Z"/></g></g></svg>