<svg xmlns="http://www.w3.org/2000/svg" viewBox="0 0 85.56 96.64"><defs><style>.cls-1{fill:#ccc;}.cls-2{fill:#a6a6a6;}.cls-3{fill:#fff;}</style></defs><g id="Layer_2" data-name="Layer 2"><g id="Logo"><path class="cls-1" d="M85.56,67.62V22.54L46.52,0V17.29l15.3,8.83a.86.86,0,0,1,0,1.48L43.64,38.1a1.73,1.73,0,0,1-1.72,0L23.74,27.6a.86.86,0,0,1,0-1.48L39,17.29V0L0,22.54V67.62L15,59V41.31a.87.87,0,0,1,1.29-.74l18.18,10.5a1.69,1.69,0,0,1,.85,1.48v21a.86.86,0,0,1-1.27.75l-15.3-8.84-15,8.65,39,22.54,39-22.54-15-8.65-15.3,8.84a.87.87,0,0,1-1.28-.75v-21a1.69,1.69,0,0,1,.86-1.48l18.18-10.5a.86.86,0,0,1,1.28.74V59Z"/><path class="cls-2" d="M42.78,96.64l39-22.54-15-8.65-15.3,8.84a.87.87,0,0,1-1.28-.75v-21a1.69,1.69,0,0,1,.86-1.48l18.18-10.5a.86.86,0,0,1,1.28.74V59l15,8.65V22.54L42.78,47.24Z"/><path class="cls-3" d="M46.52,0V17.29l15.3,8.83a.86.86,0,0,1,0,1.48L43.64,38.1a1.73,1.73,0,0,1-1.72,0L23.74,27.6a.86.86,0,0,1,0-1.48L39,17.29V0L0,22.54l42.78,24.7,42.78-24.7Z"/><path class="cls-1" d="M34,74.29l-15.3-8.84-15,8.65,39,22.54V47.24L0,22.54V67.62L15,59V41.31a.87.87,0,0,1,1.29-.74l18.18,10.5a1.69,1.69,0,0,1,.85,1.48v21A.86.86,0,0,1,34,74.29Z"/></g></g></svg>